<?xml version="1.0" encoding="UTF-8"?>
<svg xmlns="http://www.w3.org/2000/svg" xmlns:xlink="http://www.w3.org/1999/xlink" width="25pt" height="25pt" viewBox="0 0 25 25" version="1.1">
<g id="surface1">
<path style=" stroke:none;fill-rule:nonzero;fill:rgb(100%,100%,100%);fill-opacity:1;" d="M 25 12.5 C 25 19.402344 19.402344 25 12.5 25 C 5.597656 25 0 19.402344 0 12.5 C 0 5.597656 5.597656 0 12.5 0 C 19.402344 0 25 5.597656 25 12.5 Z M 25 12.5 "/>
<path style=" stroke:none;fill-rule:nonzero;fill:rgb(12.54902%,12.54902%,12.54902%);fill-opacity:1;" d="M 5.535156 19.464844 C 3.660156 17.589844 2.679688 15.089844 2.679688 12.679688 L 12.410156 22.320312 C 9.910156 22.230469 7.410156 21.339844 5.535156 19.464844 Z M 14.644531 22.054688 L 2.945312 10.355469 C 3.929688 5.980469 7.855469 2.679688 12.5 2.679688 C 15.804688 2.679688 18.660156 4.285156 20.445312 6.695312 L 19.105469 7.855469 C 17.589844 5.804688 15.179688 4.464844 12.5 4.464844 C 9.019531 4.464844 6.070312 6.695312 4.910156 9.820312 L 15.179688 20.089844 C 17.769531 19.195312 19.730469 16.964844 20.355469 14.285156 L 16.070312 14.285156 L 16.070312 12.5 L 22.320312 12.5 C 22.320312 17.144531 19.019531 21.070312 14.644531 22.054688 Z M 14.644531 22.054688 "/>
</g>
</svg>
