<?xml version="1.0" encoding="UTF-8" standalone="no"?>
<svg
   xmlns:dc="http://purl.org/dc/elements/1.1/"
   xmlns:cc="http://creativecommons.org/ns#"
   xmlns:rdf="http://www.w3.org/1999/02/22-rdf-syntax-ns#"
   xmlns:svg="http://www.w3.org/2000/svg"
   xmlns="http://www.w3.org/2000/svg"
   id="svg74"
   version="1.1"
   viewBox="0 0 418.63 345.92445">
  <metadata
     id="metadata78">
    <rdf:RDF>
      <cc:Work
         rdf:about="">
        <dc:format>image/svg+xml</dc:format>
        <dc:type
           rdf:resource="http://purl.org/dc/dcmitype/StillImage" />
      </cc:Work>
    </rdf:RDF>
  </metadata>
  <defs
     id="defs4">
    <style
       id="style2">.\34 1503649-8ceb-4cb0-b0e6-65326a3c5501{fill:#e2ddcf;}.\38 a162ac9-6d81-485a-8e8b-515d3705ece5{fill:#c9c4b9;}.\39 6a71dea-d683-467d-9696-92aaa47a5b9d{fill:#e5dbcc;}.\35 17eaba5-61c5-4593-9b9b-1ff73992fc97{fill:#68533e;}.c4ed8ef4-8703-4db4-8788-1851be75ee2b{fill:#776047;}.b924cad2-b7cf-4bfd-919f-affd364b044e{fill:#84553e;}.\32 c877fda-ef7c-480f-8c23-900de759a1d9{fill:#e0d5c3;}.a5a4b4d2-7e4f-45bd-87f4-53a70bd82199{fill:#7a6349;}.\32 43e8f1e-9589-40f6-adb8-1d0e8bbff84f{fill:#897051;}.\32 406af2e-ab76-44dc-8338-7381d478503e{fill:#a0835c;}.adbdacf1-0eac-4857-a0e2-77a7a1f2f894{fill:#8e7454;}.ac0d1f46-2f18-4c78-b38d-431affd439e5{fill:#d6cdbf;}.\30 1134874-575d-475a-ae06-7539c823b528{fill:#b79665;}.\34 9f51699-1e80-4ec6-a721-828fd9514f07{fill:#cec4b6;}.c82bef9c-67c2-47b9-a18c-83438cb15340{fill:#a3855d;}</style>
  </defs>
  <title
     id="title6">teatest</title>
  <g
     data-name="Layer 2"
     id="29fe1bca-4d26-418b-9911-fdd0b2ff6367">
    <polygon
       id="polygon8"
       points="412.62 146.3 418.53 177.03 411.92 208.31 388.44 235.5 344.08 258.93 291.59 273.03 324.17 235.38 331.97 233.49 377.78 211.6 397.96 192.81 398.76 170.32 377.52 148.55 345.66 143.92 342.52 145.47 345.34 116.93 353.71 114.69 386.89 124.03 412.62 146.3"
       class="41503649-8ceb-4cb0-b0e6-65326a3c5501" />
    <polygon
       id="polygon10"
       points="345.34 116.93 342.52 145.47 321.05 156.05 316.41 179.23 300.18 187.55 306.46 149.33 319.64 123.79 345.34 116.93"
       class="8a162ac9-6d81-485a-8e8b-515d3705ece5" />
    <polygon
       id="polygon12"
       points="324.17 61.33 324.17 115 291.01 137.6 287.68 124.01 260.68 96.65 256.55 94.52 265.46 14.83 324.17 61.33"
       class="96a71dea-d683-467d-9696-92aaa47a5b9d" />
    <polygon
       id="polygon14"
       points="324.17 115 319.64 123.79 306.46 149.33 255.29 183.86 256.55 161.08 291.01 137.6 324.17 115"
       class="517eaba5-61c5-4593-9b9b-1ff73992fc97" />
    <polygon
       id="polygon16"
       points="324.17 235.38 291.59 273.03 286.49 274.4 263.6 292.71 261.66 291.4 290.04 249.33 291.01 243.43 324.17 235.38"
       class="8a162ac9-6d81-485a-8e8b-515d3705ece5" />
    <polygon
       id="polygon18"
       points="306.46 149.33 300.18 187.55 291.01 243.43 290.04 249.33 261.66 291.4 248.21 311.33 255.29 183.86 306.46 149.33"
       class="c4ed8ef4-8703-4db4-8788-1851be75ee2b" />
    <polygon
       id="polygon20"
       points="287.68 124.01 291.01 137.6 256.55 161.08 162.09 180.68 67.62 161.08 30.7 135.92 33.61 124.01 60.61 96.65 69 92.32 106.43 73.01 160.65 65.22 214.86 73.01 256.55 94.52 260.68 96.65 287.68 124.01"
       class="b924cad2-b7cf-4bfd-919f-affd364b044e" />
    <polygon
       id="polygon22"
       points="160.65 65.22 159.21 65.01 159.21 0 265.46 14.83 256.55 94.52 214.86 73.01 160.65 65.22"
       class="2c877fda-ef7c-480f-8c23-900de759a1d9" />
    <polygon
       id="polygon24"
       points="256.55 161.08 255.29 183.86 255.28 183.86 162.09 203.7 162.09 180.68 256.55 161.08"
       class="a5a4b4d2-7e4f-45bd-87f4-53a70bd82199" />
    <polygon
       id="polygon26"
       points="255.29 183.86 248.21 311.33 217.79 333.33 162.09 345.33 162.09 203.7 255.28 183.86 255.29 183.86"
       class="243e8f1e-9589-40f6-adb8-1d0e8bbff84f" />
    <polygon
       id="polygon28"
       points="162.09 203.7 162.09 345.33 106.38 333.33 76.21 311.33 69 185.16 162.09 203.7"
       class="2406af2e-ab76-44dc-8338-7381d478503e" />
    <polygon
       id="polygon30"
       points="162.09 180.68 162.09 203.7 69 185.16 67.62 161.08 162.09 180.68"
       class="adbdacf1-0eac-4857-a0e2-77a7a1f2f894" />
    <polygon
       id="polygon32"
       points="160.65 65.22 106.43 73.01 69 92.32 58.71 14.83 159.21 0 159.21 65.01 160.65 65.22"
       class="ac0d1f46-2f18-4c78-b38d-431affd439e5" />
    <polygon
       id="polygon34"
       points="69 185.16 76.21 311.33 34.13 249.33 14.04 149.33 69 185.16"
       class="01134874-575d-475a-ae06-7539c823b528" />
    <polygon
       id="polygon36"
       points="58.71 14.83 69 92.32 60.61 96.65 33.61 124.01 30.7 135.92 0 115 0 61.33 58.71 14.83"
       class="49f51699-1e80-4ec6-a721-828fd9514f07" />
    <polygon
       id="polygon38"
       points="67.62 161.08 69 185.16 14.04 149.33 0 115 30.7 135.92 67.62 161.08"
       class="c82bef9c-67c2-47b9-a18c-83438cb15340" />
  </g>
  <g
     data-name="Layer 3"
     id="3caf4b5c-e012-4c54-bc84-fe770e3989ae">
    <polygon
       id="polygon41"
       points="412.72 146.894 418.63 177.624 412.02 208.904 388.54 236.094 344.18 259.524 291.69 273.624 324.27 235.974 332.07 234.084 377.88 212.194 398.06 193.404 398.86 170.914 377.62 149.144 345.76 144.514 342.62 146.064 345.44 117.524 353.81 115.284 386.99 124.624 412.72 146.894"
       class="41503649-8ceb-4cb0-b0e6-65326a3c5501" />
    <polygon
       id="polygon43"
       points="345.44 117.524 342.62 146.064 321.15 156.644 316.51 179.824 300.28 188.144 306.56 149.924 319.74 124.384 345.44 117.524"
       class="8a162ac9-6d81-485a-8e8b-515d3705ece5" />
    <polygon
       id="polygon45"
       points="324.27 61.924 324.27 115.594 291.11 138.194 287.78 124.604 260.78 97.244 256.65 95.114 265.56 15.424 324.27 61.924"
       class="96a71dea-d683-467d-9696-92aaa47a5b9d" />
    <polygon
       id="polygon47"
       points="324.27 115.594 319.74 124.384 306.56 149.924 255.39 184.454 256.65 161.674 291.11 138.194 324.27 115.594"
       class="517eaba5-61c5-4593-9b9b-1ff73992fc97" />
    <polygon
       id="polygon49"
       points="324.27 235.974 291.69 273.624 286.59 274.994 263.7 293.304 261.76 291.994 290.14 249.924 291.11 244.024 324.27 235.974"
       class="8a162ac9-6d81-485a-8e8b-515d3705ece5" />
    <polygon
       id="polygon51"
       points="306.56 149.924 300.28 188.144 291.11 244.024 290.14 249.924 261.76 291.994 248.31 311.924 255.39 184.454 306.56 149.924"
       class="c4ed8ef4-8703-4db4-8788-1851be75ee2b" />
    <polygon
       id="polygon53"
       points="287.78 124.604 291.11 138.194 256.65 161.674 162.19 181.274 67.72 161.674 30.8 136.514 33.71 124.604 60.71 97.244 69.1 92.914 106.53 73.604 160.75 65.814 214.96 73.604 256.65 95.114 260.78 97.244 287.78 124.604"
       class="b924cad2-b7cf-4bfd-919f-affd364b044e" />
    <polygon
       id="polygon55"
       points="160.75 65.814 159.31 65.604 159.31 0.594 265.56 15.424 256.65 95.114 214.96 73.604 160.75 65.814"
       class="2c877fda-ef7c-480f-8c23-900de759a1d9" />
    <polygon
       id="polygon57"
       points="256.65 161.674 255.39 184.454 255.38 184.454 162.19 204.294 162.19 181.274 256.65 161.674"
       class="a5a4b4d2-7e4f-45bd-87f4-53a70bd82199" />
    <polygon
       id="polygon59"
       points="255.39 184.454 248.31 311.924 217.89 333.924 162.19 345.924 162.19 204.294 255.38 184.454 255.39 184.454"
       class="243e8f1e-9589-40f6-adb8-1d0e8bbff84f" />
    <polygon
       id="polygon61"
       points="162.19 204.294 162.19 345.924 106.48 333.924 76.31 311.924 69.1 185.754 162.19 204.294"
       class="2406af2e-ab76-44dc-8338-7381d478503e" />
    <polygon
       id="polygon63"
       points="162.19 181.274 162.19 204.294 69.1 185.754 67.72 161.674 162.19 181.274"
       class="adbdacf1-0eac-4857-a0e2-77a7a1f2f894" />
    <polygon
       id="polygon65"
       points="160.75 65.814 106.53 73.604 69.1 92.914 58.81 15.424 159.31 0.594 159.31 65.604 160.75 65.814"
       class="ac0d1f46-2f18-4c78-b38d-431affd439e5" />
    <polygon
       id="polygon67"
       points="69.1 185.754 76.31 311.924 34.23 249.924 14.14 149.924 69.1 185.754"
       class="01134874-575d-475a-ae06-7539c823b528" />
    <polygon
       id="polygon69"
       points="58.81 15.424 69.1 92.914 60.71 97.244 33.71 124.604 30.8 136.514 0.1 115.594 0.1 61.924 58.81 15.424"
       class="49f51699-1e80-4ec6-a721-828fd9514f07" />
    <polygon
       id="polygon71"
       points="67.72 161.674 69.1 185.754 14.14 149.924 0.1 115.594 30.8 136.514 67.72 161.674"
       class="c82bef9c-67c2-47b9-a18c-83438cb15340" />
  </g>
</svg>
